<svg width="32" height="32" viewBox="0 0 32 32" fill="none" xmlns="http://www.w3.org/2000/svg">
<rect width="32" height="32" rx="16" fill="white"/>
<g clip-path="url(#clip0_4024_2)">
<path fill-rule="evenodd" clip-rule="evenodd" d="M23.3658 10.8506C23.4481 10.4231 23.8991 9.43182 24.0775 9.28606C24.1038 9.26455 24.215 9.23379 24.3247 9.21766C25.1413 9.09745 25.6885 8.93308 25.9877 8.71793C26.3903 8.42831 26.8025 7.76068 27.0496 6.9975C27.1125 6.80372 27.2015 6.57317 27.2474 6.48516C27.2933 6.39723 27.3323 6.31085 27.334 6.29302C27.3397 6.22921 27.2224 6.21343 26.9768 6.24503C26.1414 6.3528 25.6623 6.53145 25.0958 6.94666C24.5832 7.32206 24.2503 7.81651 24.0078 8.56161C23.9622 8.70179 23.855 8.94972 23.7695 9.11265C23.684 9.27567 23.5831 9.49182 23.5452 9.59296C23.5073 9.69418 23.4683 9.78367 23.4584 9.7918C23.4334 9.81217 23.2951 9.19952 23.2435 8.84049C23.1897 8.46657 23.1352 7.75672 23.1587 7.73748C23.1976 7.70574 23.2383 7.86288 23.3093 8.319C23.3997 8.89853 23.4695 9.22647 23.4974 9.20364C23.509 9.1942 23.5268 9.16356 23.5372 9.13542C23.5475 9.10737 23.5992 8.99304 23.6519 8.88138C23.7399 8.69507 23.7469 8.64947 23.7377 8.3266C23.7263 7.9236 23.6845 7.64272 23.6028 7.42087C23.5229 7.2039 22.9029 6.27785 22.8606 6.31239C22.8491 6.32183 22.8187 6.54872 22.7932 6.81664C22.7675 7.08453 22.7273 7.39518 22.7038 7.50709C22.6211 7.90124 22.6126 8.27423 22.6787 8.61792C22.7185 8.82576 22.7582 8.90271 23.0036 9.24856C23.1217 9.41517 23.2326 9.59469 23.25 9.64788C23.2674 9.70097 23.2611 10.0421 23.2361 10.4058C23.2112 10.7681 23.2035 10.9975 23.2219 11.1839L23.3658 10.8506ZM25.1838 7.90188C25.5229 7.59714 26.1726 7.0793 26.2873 7.02216C26.3565 6.98765 26.3599 6.98899 26.3318 7.03892C26.315 7.06868 26.1985 7.21502 26.0728 7.36404C25.8781 7.59488 25.7679 7.69754 25.3304 8.05681C24.8203 8.47536 24.5193 8.68666 24.5514 8.60336C24.5912 8.50057 24.9061 8.15137 25.1838 7.90188Z" fill="#D8234B"/>
<path fill-rule="evenodd" clip-rule="evenodd" d="M7.73515 7.17705C6.23442 7.4279 4.95594 8.17843 4.05317 9.33832C3.20242 10.4315 2.82828 11.4144 2.82619 12.5623C2.82531 13.082 2.86285 13.3589 2.99292 13.7924C3.14917 14.3131 3.4107 14.7959 3.59226 14.8984C3.70522 14.9623 3.70627 14.9129 3.59628 14.6897C3.37264 14.2354 3.21603 13.6331 3.15999 13.0119C3.13206 12.703 3.21586 12.1891 3.36024 11.7844C3.49904 11.3951 3.8372 10.7649 4.12999 10.3502C4.44668 9.90196 5.38315 8.92454 5.77282 8.63589C6.76516 7.90067 7.48601 7.58715 8.18453 7.58715C8.87466 7.58715 9.32911 7.79616 9.54192 8.21179C9.62293 8.37011 9.62205 8.94573 9.54018 9.36007C9.39981 10.07 9.14038 10.7811 8.38042 12.5399C6.72657 16.3671 6.57346 16.7579 6.41546 17.5556C6.34423 17.9157 6.31124 18.6512 6.35523 18.9009L6.35595 18.905C6.3591 18.9231 6.36177 18.9404 6.36397 18.9568C6.44667 19.4654 6.6054 19.6597 7.06684 19.8405C7.27599 19.9123 7.41426 19.9349 7.6496 19.9364C7.92649 19.9381 7.99127 19.9246 8.28352 19.8039C8.80936 19.5868 9.26329 19.2226 9.83228 18.5614C10.3218 17.9926 10.6012 17.5543 11.4766 15.9815C11.6126 15.7375 11.6305 15.7311 11.575 15.9454C11.4973 16.2454 11.3634 17.1191 11.3311 17.5368C11.1813 19.4786 12.0791 20.7724 13.506 20.6711C13.8823 20.6443 14.0372 20.597 14.1937 20.4606C14.3158 20.3544 14.3461 20.2753 14.281 20.2329C14.262 20.2205 14.1295 20.2378 13.9867 20.2713C13.7726 20.3216 13.6927 20.3251 13.5329 20.2918C12.8826 20.1555 12.3798 19.5641 12.2374 18.7677C12.1703 18.3924 12.1902 17.2918 12.2745 16.7234C12.5713 14.7209 13.9886 10.9566 15.1213 9.16211C15.5618 8.4643 15.8891 8.10857 16.4149 7.75635C16.5232 7.68355 16.6119 7.61019 16.6119 7.59323C16.6119 7.57609 16.5815 7.53296 16.5442 7.49739C16.4879 7.44375 16.4335 7.43564 16.2235 7.44983C15.618 7.49094 14.9193 8.04517 14.3701 8.91992C13.9606 9.57222 13.6894 10.1452 12.8516 12.1276C11.9901 14.1654 11.8072 14.5619 11.2251 15.6516C10.3576 17.2764 9.66626 18.1978 8.79261 18.8941C8.11749 19.4325 7.7142 19.4358 7.4628 18.905C7.36782 18.7041 7.35822 18.6519 7.35874 18.3367C7.36014 17.466 7.73166 16.3456 8.94345 13.5573C10.1343 10.8173 10.3871 10.0853 10.4309 9.25151C10.4925 8.07669 10.0323 7.48651 8.84935 7.22294C8.56321 7.15917 7.98498 7.13539 7.73515 7.17705ZM22.4451 11.8398C22.0292 11.9589 21.6818 12.1309 21.6963 12.2103C21.7048 12.2573 21.745 12.2669 21.8999 12.2593C22.1745 12.2459 22.3252 12.2844 22.4294 12.3942C22.5125 12.482 22.5186 12.5082 22.5025 12.707C22.4825 12.954 22.292 13.5037 21.8627 14.5524C21.3541 15.7947 21.1532 16.5513 21.1179 17.3566C21.0954 17.8735 21.1294 18.1054 21.2754 18.4263C21.4507 18.8117 21.7262 19.0196 22.1841 19.1122C22.5411 19.1842 22.7574 19.1796 23.0692 19.0935C23.6705 18.9271 24.2791 18.5419 24.7761 18.0129C25.1646 17.5991 25.3338 17.345 25.5826 16.8017C25.7585 16.4173 25.7941 16.2761 25.7474 16.1474C25.6826 15.9694 25.4135 16.2199 25.2782 16.5841C24.9891 17.3623 24.3906 18.0324 23.6251 18.4357C22.8941 18.8207 22.3657 18.771 22.1345 18.2954C22.0417 18.1043 21.9886 17.7353 22.0149 17.4651C22.1019 16.5763 22.4117 15.6054 23.1467 13.9193C23.7859 12.4534 23.837 12.0697 23.4221 11.8575C23.1785 11.7331 22.8391 11.727 22.4451 11.8398Z" fill="#D8234B"/>
<path fill-rule="evenodd" clip-rule="evenodd" d="M16.8584 16.9685C16.7807 16.7108 16.4997 16.035 16.3792 15.8158C16.3395 15.7438 16.296 15.6817 16.2825 15.6781C16.2542 15.6705 15.9625 15.9811 15.7798 16.2131C15.395 16.702 15.2779 17.1722 15.4189 17.6636C15.5152 17.9995 15.8165 18.2842 16.1848 18.3877C16.4154 18.4233 16.4911 18.3818 16.6464 18.2968C16.6499 18.2948 16.6535 18.2929 16.6572 18.2909C16.6595 18.2896 16.6619 18.2883 16.6643 18.287C17.1239 18.0358 17.0266 17.5263 16.8584 16.9685ZM15.9053 17.3366C15.8611 17.0651 15.8809 16.7979 15.9709 16.4552C16.04 16.1923 16.0442 16.1538 15.9999 16.1908C15.8003 16.3581 15.553 17.0972 15.5792 17.4485C15.6055 17.8001 15.8508 18.111 16.1659 18.1921C16.2475 18.2131 16.3455 18.2217 16.3955 18.212C16.4705 18.1975 16.4837 18.1833 16.4905 18.1089C16.5033 17.9663 16.4478 17.885 16.3129 17.8486C16.0741 17.7842 15.9537 17.6329 15.9053 17.3366Z" fill="#D8234B"/>
<path fill-rule="evenodd" clip-rule="evenodd" d="M13.763 22.9187C13.4133 22.9753 13.0427 23.0244 12.6445 23.0679C12.9753 23.044 13.352 22.9957 13.7603 22.9192C13.7612 22.919 13.7621 22.9188 13.763 22.9187Z" fill="#D8234B"/>
<path d="M7.10775 21.0977C7.41394 21.4354 7.34838 21.4069 6.86309 20.992C6.66969 20.8267 6.53913 20.7363 6.5729 20.7912C6.7032 21.0027 7.23499 21.5377 7.52277 21.7469L7.82423 21.9662L7.24263 21.6579L7.42579 21.8412C7.52651 21.9419 7.72435 22.1085 7.86566 22.2112C8.02402 22.3265 8.18092 22.4436 8.33638 22.5627C8.58516 22.7545 9.07322 22.9434 9.64155 23.0679C9.86238 23.1161 10.0289 23.1602 10.0117 23.1655C9.9461 23.1861 9.18836 23.1084 9.02527 23.0642C8.78195 22.9984 8.82992 23.0668 9.14139 23.2298C9.46466 23.3987 9.88132 23.4884 10.4069 23.5021C10.7429 23.5108 10.7666 23.5167 10.5727 23.5439C10.4484 23.5612 10.2139 23.5749 10.0521 23.5746C9.68644 23.5739 9.72623 23.6096 10.3095 23.807L10.7316 23.9497L12.0466 23.779L11.6043 23.878C11.3609 23.9324 11.0897 23.9835 11.0015 23.9916L10.841 24.0061L11.0944 24.0861C11.6416 24.2587 11.717 24.2548 12.5331 24.0097C13.2902 23.7826 13.2142 23.8453 12.384 24.1332L11.9167 24.2952L12.1018 24.3338C12.3847 24.3928 12.964 24.3693 13.2861 24.2861L13.575 24.2113L13.4169 24.3193C13.2663 24.4223 13.2813 24.4206 13.736 24.2841C14.1163 24.1698 14.1823 24.1585 14.0613 24.2285C13.9776 24.2768 13.9138 24.3323 13.9193 24.3521C13.9488 24.4593 15.0288 24.0033 15.5279 23.6728C15.944 23.3974 16.1708 23.1989 16.5786 22.7541C16.9259 22.3748 16.8214 22.5698 16.411 23.067C16.277 23.229 16.1801 23.3582 16.1952 23.3541C16.2538 23.3382 16.657 22.9938 16.7647 22.8675C16.8771 22.736 16.877 22.737 16.7621 22.9498C16.6161 23.2202 16.2949 23.5587 16.0489 23.7018L15.8603 23.8113L16.0794 23.7543C16.6005 23.6185 17.1182 23.2619 17.5335 22.7526C17.741 22.4979 17.7688 22.4751 17.6928 22.6213C17.605 22.7904 17.6051 22.7948 17.6951 22.715C17.7469 22.6688 17.839 22.5521 17.8995 22.4555C18.0017 22.2923 18.0078 22.2886 17.9851 22.4029C17.9715 22.4706 17.9073 22.6425 17.8422 22.785C17.7362 23.0167 17.734 23.0374 17.8205 22.9835C18.0174 22.8605 18.3605 22.5093 18.5127 22.2748C18.5998 22.1403 18.6901 21.9181 18.7156 21.7748L18.7616 21.5168L18.9097 21.7795C19.0174 21.9704 19.0417 21.9972 18.9985 21.8775L18.9392 21.7128L19.0454 21.7884C19.1667 21.8748 19.1647 21.7984 19.0412 21.6304C19.0008 21.5756 18.9765 21.5284 18.9871 21.5255C19.0197 21.5167 19.1623 21.6804 19.2333 21.8081L19.3009 21.9297L19.2619 21.7772C19.2404 21.6933 19.1814 21.5836 19.1306 21.5331C19.0798 21.4829 19.0333 21.4269 19.0275 21.4087C19.0051 21.34 19.2963 21.4686 19.4613 21.6001C19.5558 21.6755 19.6282 21.7196 19.6221 21.6982C19.6066 21.6425 19.3965 21.4561 19.2542 21.3716C19.1875 21.332 19.1486 21.2958 19.1678 21.2912C19.2297 21.2763 19.4344 21.3771 19.5897 21.4994C19.673 21.5651 19.7372 21.6039 19.7322 21.5859C19.7148 21.5226 19.5717 21.3894 19.4243 21.2991L19.2758 21.208L19.42 21.2217C19.6345 21.2422 19.8956 21.3264 19.9104 21.3799C19.9176 21.4059 19.9328 21.4103 19.9445 21.39C19.9837 21.322 19.6947 21.1831 19.394 21.1255L19.0964 21.0686L19.2988 21.0359C19.4101 21.0179 19.5438 21.0046 19.596 21.0067C19.6482 21.0086 19.6015 20.9926 19.4922 20.9713L19.2937 20.9324L19.64 20.8252L19.3921 20.8212C19.256 20.8189 19.1403 20.802 19.1351 20.7834C19.13 20.7649 19.1932 20.7064 19.2756 20.6536C17.2166 21.9647 15.8683 22.5779 13.7637 22.9187L13.761 22.9192C13.3527 22.9957 12.976 23.044 12.6452 23.0679C13.0434 23.0244 13.4139 22.9753 13.7637 22.9187C15.3747 22.6163 17.4758 21.8753 19.1815 20.4652C19.1617 20.4755 19.1501 20.4462 19.132 20.3652C19.1136 20.2818 19.1405 20.1419 19.2009 20.0075C19.277 19.8382 19.2796 19.8185 19.2119 19.9235C19.1302 20.0504 19.1218 20.0544 19.0976 19.9778C19.083 19.9316 19.0645 19.9789 19.0555 20.0849C19.0387 20.2825 18.9882 20.4206 18.9642 20.3339C18.9569 20.3073 18.9554 20.1549 18.9611 19.9951C18.9715 19.6969 18.9417 19.6581 18.9112 19.9304C18.8943 20.0816 18.8939 20.081 18.8651 19.8831C18.8308 19.6467 18.8016 19.6664 18.8061 19.9234L18.8092 20.1061L18.7734 19.9062C18.7392 19.7154 18.7362 19.712 18.7065 19.8311C18.6894 19.8999 18.6836 19.9957 18.6936 20.0444C18.7086 20.1184 18.7011 20.1167 18.6467 20.0338C18.5917 19.95 18.5884 19.9649 18.626 20.1326C18.6671 20.3161 18.6654 20.3215 18.6011 20.2092C18.5507 20.1211 18.5357 20.1125 18.5461 20.1774C18.5585 20.2545 18.5516 20.2531 18.4958 20.1679C18.4403 20.0836 18.4371 20.098 18.4734 20.267L18.516 20.4652L18.3365 20.048L18.4349 20.4872L18.3217 20.2849C18.2217 20.106 18.0162 19.8785 17.9668 19.8919C17.9568 19.8946 17.9983 19.9503 18.0591 20.0157C18.1781 20.1439 18.3182 20.3558 18.2891 20.3636C18.2793 20.3664 18.2105 20.3024 18.1365 20.2218C17.9311 19.9982 17.8774 20.0181 18.0717 20.2459C18.2811 20.491 18.3542 20.6785 18.1752 20.511C18.1115 20.4514 18.0205 20.3502 17.9731 20.2862L17.8868 20.1699L18.0175 20.4607L17.8419 20.287C17.5917 20.0393 17.601 20.1128 17.8556 20.3949L18.0703 20.6326L17.8485 20.4854C17.5613 20.2948 17.4441 20.2238 17.5111 20.2811C17.5441 20.3094 17.5468 20.332 17.5183 20.3397C17.4927 20.3466 17.4543 20.3361 17.433 20.3164C17.4117 20.2967 17.3532 20.2713 17.303 20.2599C17.2528 20.2486 17.3677 20.3275 17.5582 20.4354C17.7487 20.5433 17.9546 20.6852 18.0155 20.7507L18.1263 20.8702L17.8832 20.7987C17.7495 20.7595 17.4939 20.7334 17.3152 20.741C17.1364 20.7485 16.8771 20.7476 16.7391 20.7388C16.4389 20.7199 16.4186 20.7482 16.7014 20.7917C16.8169 20.8095 16.8804 20.8383 16.8491 20.8586C16.8186 20.8782 16.8505 20.8704 16.92 20.8412C17.0046 20.8056 17.0308 20.8063 16.9995 20.8433C16.9661 20.8825 17.0148 20.8988 17.1689 20.8997C17.2879 20.9005 17.3985 20.9135 17.415 20.9286C17.4312 20.9436 17.352 20.9538 17.2384 20.9508C16.976 20.9444 16.4861 21.0146 16.5456 21.0504C16.5705 21.0652 16.7025 21.0842 16.8391 21.0924C16.9756 21.1006 17.0353 21.1102 16.9716 21.1135C16.908 21.1168 16.6763 21.1584 16.4569 21.206L16.0581 21.2925L16.3951 21.2923C16.6928 21.2922 17.0323 21.3332 17.0425 21.3704C17.0494 21.3953 16.4353 21.4681 16.2692 21.4622C15.9679 21.4512 15.7088 21.3797 15.4859 21.2456C15.2644 21.1124 15.2679 21.1348 15.4989 21.3298C15.6115 21.4249 15.614 21.4313 15.5241 21.3928C15.4691 21.3693 15.35 21.291 15.2591 21.2189C15.1611 21.141 15.0927 21.1123 15.0906 21.1481C15.0885 21.1825 15.0405 21.1585 14.9787 21.092C14.919 21.028 14.8367 20.9723 14.7956 20.9683C14.7361 20.9623 14.7443 20.9802 14.8365 21.0564C14.9 21.1089 15.0567 21.2452 15.185 21.3592C15.3132 21.4732 15.502 21.595 15.6047 21.6298C15.7071 21.6646 15.7716 21.6977 15.7477 21.7032C15.6586 21.724 15.457 21.6507 15.1561 21.488C14.9855 21.3958 14.8878 21.351 14.9389 21.3883C15.1261 21.525 15.134 21.565 14.9563 21.4768L14.7743 21.3864L14.8917 21.4944C14.9562 21.5537 15.0467 21.6177 15.0925 21.6364C15.1384 21.6553 15.16 21.6757 15.1405 21.6816C15.073 21.7028 14.6521 21.5359 14.4978 21.4267C14.3747 21.3396 14.3597 21.3366 14.4253 21.4112C14.4706 21.463 14.5749 21.5477 14.657 21.5994L14.8065 21.6934L14.6653 21.65C14.5875 21.6261 14.4695 21.5662 14.4028 21.5167L14.2814 21.4269L14.3629 21.5213C14.4077 21.5732 14.5118 21.6591 14.5943 21.7123L14.7445 21.809L14.6165 21.7714C14.5462 21.7508 14.4269 21.6815 14.3511 21.6176C14.2752 21.5537 14.2188 21.5211 14.2255 21.5452C14.2321 21.5691 14.3062 21.6471 14.3901 21.7184C14.5191 21.8279 14.528 21.8447 14.4479 21.8264C14.3956 21.8147 14.2951 21.7626 14.2242 21.711C14.1249 21.6382 14.1364 21.6587 14.2756 21.8012C14.4358 21.9652 14.4426 21.9791 14.3385 21.9284C14.2741 21.897 14.2257 21.8871 14.2311 21.9065C14.2364 21.9257 14.1868 21.9185 14.121 21.8901C14.055 21.862 14.1599 21.9264 14.3539 22.0335C14.6444 22.1937 14.6774 22.222 14.54 22.193C14.4483 22.1734 14.2509 22.0888 14.1015 22.0048C13.8969 21.8897 13.7976 21.8609 13.6981 21.8879L13.5662 21.9236L13.7833 22.0395C13.9027 22.1033 13.951 22.1342 13.8906 22.1085C13.7175 22.0346 13.4295 21.961 13.3731 21.9761C13.3449 21.9837 13.451 22.0618 13.6088 22.1498C13.9242 22.3254 13.8836 22.3169 13.2832 22.0819C12.8741 21.9219 12.7869 21.901 12.872 21.9837C12.8979 22.0088 12.8724 22.0078 12.8154 21.9814C12.7585 21.955 12.6337 21.9175 12.5379 21.898C12.3673 21.8632 12.3654 21.864 12.4499 21.9278C12.5137 21.9753 12.5788 22.0211 12.6452 22.065C12.7078 22.1062 12.7466 22.1633 12.7359 22.1992C12.7251 22.2353 12.7324 22.2453 12.7534 22.2231C12.7733 22.202 12.8891 22.2458 13.0107 22.3205C13.1762 22.4221 13.1873 22.4339 13.0545 22.3676C12.9571 22.3188 12.8427 22.283 12.8006 22.2881C12.7587 22.2931 12.5588 22.1994 12.3568 22.0797C12.0198 21.8801 12.0194 21.916 12.3555 22.1819C12.6327 22.4014 12.5725 22.3894 12.1499 22.1405C11.9088 21.9986 11.6643 21.8835 11.6064 21.8846C11.4686 21.8871 11.4779 21.9047 11.705 22.072L11.8966 22.213L11.6443 22.1023C11.4042 21.997 11.0548 21.9567 10.6717 21.9901L10.4988 22.0053L10.7523 22.2417C10.8917 22.3717 10.9983 22.4801 10.9894 22.4825C10.963 22.4896 10.3376 22.0355 10.1901 21.9021C10.0795 21.8022 10.0662 21.7983 10.1149 21.8809C10.2121 22.0454 10.5125 22.3934 10.6112 22.4559C10.6617 22.488 10.6955 22.527 10.6865 22.5427C10.6563 22.5953 10.2331 22.2649 10.0953 22.0811C10.0022 21.957 9.96722 21.9312 9.98454 21.9993C9.99832 22.054 10.0586 22.1608 10.1182 22.2367C10.3266 22.5015 10.2444 22.4671 9.9093 22.149C9.6768 21.9285 9.63395 21.9605 9.82931 22.2089C9.97231 22.3907 9.93211 22.3978 9.76466 22.2205C9.69235 22.1439 9.6406 22.1116 9.64977 22.1486C9.65887 22.1856 9.72657 22.2818 9.80045 22.3622C9.97951 22.5574 9.97747 22.5741 9.79142 22.432C9.65547 22.328 9.64373 22.3258 9.69554 22.414L9.75448 22.5144L9.63225 22.4312C9.56512 22.3852 9.37564 22.2394 9.21123 22.107C8.86148 21.8253 8.83811 21.8414 9.15319 22.1467C9.51695 22.4992 9.11339 22.3314 8.70851 21.962C8.47381 21.7477 8.47016 21.7991 8.70371 22.0306L8.86978 22.1951L8.72231 22.1187C8.64137 22.0766 8.48919 21.9606 8.38432 21.8608C8.27965 21.7611 8.21094 21.7065 8.23191 21.7392C8.26545 21.7921 8.29827 21.8453 8.33052 21.8987L8.39102 21.9989L8.26997 21.9151C7.61079 21.459 7.11516 20.9918 6.70702 20.441C6.59254 20.2867 6.49463 20.1677 6.48954 20.1765C6.46235 20.2237 6.88145 20.8481 7.10775 21.0977Z" fill="#D8234B"/>
<path fill-rule="evenodd" clip-rule="evenodd" d="M18.6134 9.30509C17.7546 9.5025 17.0592 10.1601 16.7153 11.1003C16.51 11.6615 16.4941 12.3057 16.6644 13.1796C16.6856 13.2881 16.6795 13.294 16.3318 13.5021C15.2992 14.1194 14.6229 14.73 14.1552 15.4667C13.8132 16.0054 13.6577 16.5137 13.6543 17.1032C13.6491 18.0061 14.102 18.7416 14.936 19.1857C15.7026 19.5939 16.7214 19.5666 17.6265 19.1141C18.0186 18.918 18.3034 18.7173 18.6391 18.4003C18.7835 18.264 18.909 18.1525 18.9179 18.1525C18.9268 18.1525 19.0856 18.3846 19.2711 18.6681C19.5156 19.0675 19.8823 19.9469 19.4048 20.2968L19.33 20.3651C19.3214 20.3685 19.313 20.3716 19.3049 20.3747H19.3048C19.2653 20.3894 19.2329 20.4014 19.2107 20.433C19.2058 20.4399 19.2067 20.4457 19.2026 20.4507C19.2346 20.4228 19.2734 20.3892 19.2753 20.4067C19.2776 20.4272 19.2608 20.4689 19.2522 20.4871C19.2695 20.486 19.3041 20.4941 19.3041 20.5352C19.3041 20.5637 19.3315 20.5504 19.356 20.5386C19.3757 20.529 19.3935 20.5203 19.3935 20.5352C19.3935 20.5584 19.3621 20.5873 19.3399 20.6038C19.39 20.569 19.445 20.5378 19.5019 20.5056C19.6277 20.4343 19.7628 20.3577 19.875 20.2256C20.432 19.57 19.8377 18.7107 19.3946 18.0698C19.3437 17.9962 19.2947 17.9254 19.2497 17.8581L19.1919 17.7394L19.6738 16.9845C20.0347 16.408 20.2938 15.727 20.4027 15.0668C20.4654 14.6871 20.4523 14.0671 20.3762 13.8287C20.3368 13.7049 20.3143 13.6824 20.2208 13.6728C20.1345 13.6639 20.0993 13.6812 20.0531 13.7557C19.9984 13.844 19.9982 13.8672 20.0509 14.1209C20.2002 14.8379 20.0286 15.5819 19.4987 16.5147C19.4256 16.6435 19.2982 16.903 19.2015 17.1L19.2013 17.1003C19.1301 17.2454 19.0756 17.3565 19.0716 17.3565C19.0512 17.3562 18.763 16.7819 18.4934 16.2445C18.3373 15.9332 18.1873 15.6344 18.0993 15.4667C17.77 14.8399 17.4069 13.7391 17.4069 13.5141C17.4069 13.4651 17.7694 13.2469 18.368 12.9335C18.836 12.6884 19.2889 12.4226 19.4655 12.2893C20.1855 11.7465 20.5529 11.1239 20.5529 10.4469C20.5529 9.98853 20.2644 9.56368 19.8383 9.39393C19.4784 9.25072 19.0012 9.21607 18.6134 9.30528V9.30509ZM17.5448 10.6551C17.7639 10.3482 18.2173 10.071 18.63 9.99099C19.2669 9.86786 19.6426 10.1241 19.6426 10.6814C19.6426 11.2972 19.2618 11.8575 18.4645 12.4149C18.0689 12.6916 17.2832 13.0265 17.254 12.9959C17.209 12.9482 17.1698 12.3635 17.1866 11.9467C17.2127 11.2941 17.2916 11.0093 17.5448 10.6551ZM16.8749 13.9774C16.8041 14.1275 16.6766 14.398 16.6843 14.4852C16.7209 14.8968 16.8373 15.2005 17.2894 16.0636C17.7113 16.8692 17.8086 17.1452 17.8097 17.5402C17.8104 17.7716 17.6886 18.1542 17.5657 18.3062C17.3634 18.5567 17.0326 18.6793 16.6001 18.6642C15.964 18.6418 15.4108 18.3989 15.0922 18.0019C14.8202 17.6629 14.7551 17.0892 14.9355 16.6195C15.0487 16.3246 15.5167 15.5338 15.5167 15.5338L16.0697 14.7932C16.0697 14.7932 16.8328 13.8218 16.8754 13.8333C16.898 13.8393 16.9182 13.8581 16.9204 13.8748C16.921 13.8794 16.9022 13.9194 16.8749 13.9774ZM16.858 16.9686C16.7802 16.7109 16.4993 16.0351 16.3788 15.8159C16.3391 15.7439 16.2955 15.6818 16.2821 15.6782C16.2538 15.6706 15.9621 15.9812 15.7794 16.2132C15.3946 16.7021 15.2774 17.1723 15.4185 17.6637C15.5148 17.9995 15.8161 18.2842 16.1844 18.3878C16.415 18.4234 16.4907 18.3819 16.6459 18.2969L16.6568 18.291L16.6638 18.2871C17.1235 18.0359 17.0262 17.5263 16.858 16.9686ZM15.9049 17.3367C15.8607 17.0652 15.8804 16.798 15.9705 16.4552C16.0395 16.1924 16.0438 16.1539 15.9995 16.1909C15.7998 16.3582 15.5526 17.0973 15.5788 17.4486C15.6051 17.8002 15.8503 18.1111 16.1654 18.1922C16.247 18.2132 16.3451 18.2218 16.3951 18.2121C16.4701 18.1976 16.4833 18.1834 16.4901 18.109C16.5028 17.9664 16.4474 17.8851 16.3125 17.8487C16.0736 17.7843 15.9532 17.633 15.9049 17.3367Z" fill="#D8234B"/>
</g>
<defs>
<clipPath id="clip0_4024_2">
<rect x="2.82617" y="6.22925" width="26.3467" height="19.5413" rx="1" fill="white"/>
</clipPath>
</defs>
</svg>
